<svg width="21" height="21" viewBox="0 0 21 21" fill="none" xmlns="http://www.w3.org/2000/svg">
<path d="M9.68975 2.30388C9.96975 1.56538 11.0294 1.56538 11.3102 2.30388L13.1215 7.32112C13.1847 7.48456 13.296 7.625 13.4406 7.72388C13.5853 7.82277 13.7565 7.87546 13.9317 7.875H18.3829C19.2054 7.875 19.5641 8.89875 18.9175 9.40013L15.75 12.25C15.6081 12.3591 15.5044 12.5103 15.4538 12.682C15.4032 12.8536 15.4082 13.0369 15.4682 13.2055L16.625 18.1081C16.9067 18.8956 15.995 19.572 15.3055 19.0872L11.0031 16.3573C10.8558 16.2537 10.6801 16.1981 10.5 16.1981C10.3199 16.1981 10.1442 16.2537 9.99687 16.3573L5.6945 19.0872C5.00587 19.572 4.09325 18.8947 4.375 18.1081L5.53175 13.2055C5.59175 13.0369 5.59681 12.8536 5.54619 12.682C5.49558 12.5103 5.39189 12.3591 5.25 12.25L2.0825 9.40013C1.435 8.89875 1.7955 7.875 2.61625 7.875H7.06737C7.24263 7.87558 7.41393 7.82294 7.55861 7.72404C7.7033 7.62513 7.81454 7.48463 7.87762 7.32112L9.68887 2.30388H9.68975Z" stroke="#040E0B" stroke-opacity="0.23" stroke-width="2" stroke-linecap="round" stroke-linejoin="round"/>
</svg>
