<svg width="21" height="21" viewBox="0 0 21 21" fill="none" xmlns="http://www.w3.org/2000/svg">
<path d="M20.3213 7.3947L14.0259 6.43661L11.2117 0.462178C11.1348 0.298601 11.0083 0.166182 10.8521 0.0856924C10.4604 -0.116831 9.98432 0.0519386 9.78844 0.462178L6.97423 6.43661L0.678842 7.3947C0.505279 7.42066 0.346592 7.50635 0.225098 7.63617C0.0782178 7.79426 -0.00271976 8.00694 6.97872e-05 8.22749C0.00285933 8.44803 0.0891477 8.6584 0.239975 8.81236L4.79477 13.4626L3.71868 20.029C3.69345 20.1818 3.70959 20.3389 3.76528 20.4825C3.82096 20.6261 3.91397 20.7505 4.03374 20.8416C4.15352 20.9327 4.29528 20.9869 4.44294 20.9979C4.59059 21.0089 4.73825 20.9764 4.86916 20.904L10.5001 17.8039L16.1309 20.904C16.2847 20.9897 16.4632 21.0183 16.6343 20.9871C17.0657 20.9092 17.3558 20.4808 17.2814 20.029L16.2053 13.4626L20.7601 8.81236C20.8841 8.68513 20.9659 8.51896 20.9907 8.33721C21.0577 7.88283 20.7552 7.46221 20.3213 7.3947V7.3947Z" fill="#FFCD1C"/>
</svg>
